<?xml version="1.0" standalone="no"?>
<!DOCTYPE svg PUBLIC "-//W3C//DTD SVG 20010904//EN"
 "http://www.w3.org/TR/2001/REC-SVG-20010904/DTD/svg10.dtd">
<svg version="1.0" xmlns="http://www.w3.org/2000/svg"
 width="720.000000pt" height="720.000000pt" viewBox="0 0 720.000000 720.000000"
 preserveAspectRatio="xMidYMid meet">
<metadata>
Created by potrace 1.14, written by Peter Selinger 2001-2017
</metadata>
<g transform="translate(0.000000,720.000000) scale(0.100000,-0.100000)"
fill="#000000" stroke="none">
<path d="M3367 7104 c-2 -2 -111 -14 -137 -15 -15 0 -153 -19 -180 -24 -8 -1
-40 -6 -70 -11 -30 -4 -57 -8 -60 -9 -33 -9 -59 -16 -80 -19 -14 -3 -25 -5
-25 -7 0 -1 -34 -8 -62 -11 -7 -1 -13 -4 -13 -8 0 -3 -14 -7 -32 -8 -18 -2
-35 -6 -38 -10 -3 -4 -10 -8 -16 -9 -6 -1 -23 -4 -37 -7 -14 -2 -34 -9 -46
-15 -11 -6 -24 -10 -28 -10 -4 1 -21 -3 -38 -10 -16 -7 -38 -13 -47 -14 -10
-1 -18 -5 -18 -10 0 -5 -9 -7 -20 -4 -11 3 -18 2 -15 -2 4 -8 -73 -36 -87 -33
-5 1 -8 -3 -8 -8 0 -6 -8 -10 -18 -10 -10 0 -28 -7 -40 -16 -12 -8 -22 -13
-22 -9 0 3 -15 -2 -32 -12 -18 -9 -36 -16 -40 -15 -5 1 -8 -3 -8 -8 0 -5 -3
-9 -7 -8 -5 1 -26 -7 -48 -17 -22 -10 -44 -19 -48 -19 -4 -1 -11 -7 -16 -14
-5 -8 -10 -13 -12 -13 -13 2 -49 -13 -49 -20 0 -5 -9 -9 -19 -9 -10 0 -21 -7
-25 -15 -3 -8 -9 -14 -13 -13 -14 3 -53 -13 -53 -22 0 -7 -35 -23 -50 -23 -3
0 -11 -8 -18 -19 -7 -10 -18 -16 -23 -13 -5 4 -9 1 -9 -6 0 -7 -3 -10 -6 -6
-3 3 -13 -1 -22 -9 -10 -8 -20 -14 -24 -14 -5 0 -17 -9 -28 -20 -12 -12 -26
-18 -32 -14 -7 4 -8 3 -4 -5 4 -6 0 -14 -11 -18 -10 -4 -21 -11 -25 -17 -4 -6
-12 -11 -18 -11 -6 0 -15 -7 -20 -15 -5 -8 -10 -12 -10 -8 0 7 -7 2 -68 -50
-15 -12 -33 -20 -40 -17 -7 3 -11 1 -8 -3 3 -5 -12 -21 -32 -38 -20 -16 -51
-43 -69 -61 -18 -18 -33 -30 -33 -27 0 3 -11 -6 -24 -20 -13 -15 -28 -26 -35
-26 -6 0 -10 -4 -9 -9 4 -11 -79 -91 -86 -84 -3 4 -6 -1 -6 -10 0 -9 -7 -17
-16 -17 -8 0 -12 -4 -9 -10 3 -5 2 -10 -4 -10 -5 0 -12 -9 -16 -20 -3 -11 -9
-19 -13 -17 -9 3 -98 -86 -94 -95 2 -7 -12 -12 -29 -10 -4 1 -6 -6 -5 -16 0
-9 -5 -16 -12 -14 -6 1 -11 -4 -10 -10 2 -7 -3 -12 -10 -10 -8 1 -11 -2 -8 -7
4 -5 -2 -14 -11 -20 -10 -6 -15 -11 -11 -11 7 0 -19 -33 -73 -91 -15 -15 -24
-31 -21 -33 3 -3 -7 -17 -22 -31 -15 -14 -24 -25 -21 -25 7 0 -10 -22 -45 -58
-14 -14 -19 -22 -12 -18 11 7 11 4 0 -13 -7 -12 -16 -21 -21 -21 -4 0 -5 -5
-2 -10 3 -6 -1 -13 -9 -16 -9 -3 -16 -12 -16 -19 0 -6 -9 -23 -21 -36 -11 -13
-27 -39 -35 -57 -7 -18 -17 -31 -22 -28 -4 2 -9 -5 -9 -16 -1 -11 -8 -28 -16
-37 -16 -18 -31 -52 -29 -63 1 -5 -3 -8 -9 -8 -5 0 -8 -4 -5 -9 3 -5 -1 -12
-10 -15 -8 -3 -12 -10 -9 -16 3 -5 1 -10 -6 -10 -7 0 -9 -3 -6 -6 4 -4 -3 -20
-14 -35 -11 -16 -18 -29 -15 -29 3 0 -10 -29 -29 -65 -19 -36 -34 -68 -34 -70
1 -14 -26 -75 -33 -75 -4 0 -5 -7 -2 -15 4 -8 1 -15 -6 -15 -6 0 -9 -4 -5 -9
3 -5 1 -12 -5 -16 -5 -3 -10 -15 -10 -26 0 -10 -5 -19 -11 -19 -5 0 -7 -5 -4
-10 4 -6 -1 -22 -10 -37 -9 -14 -12 -22 -5 -18 7 4 4 -4 -5 -19 -10 -14 -14
-26 -10 -26 4 0 3 -6 -3 -13 -10 -12 -22 -54 -24 -84 -1 -7 -6 -13 -11 -13 -6
0 -8 -3 -4 -6 3 -3 2 -17 -3 -30 -6 -14 -12 -37 -15 -52 -8 -38 -13 -57 -15
-57 -2 0 -4 -9 -14 -60 -19 -99 -27 -129 -36 -141 -8 -8 -8 -14 0 -19 6 -3 8
-11 4 -16 -3 -6 -8 -25 -11 -42 -7 -41 -11 -62 -13 -62 -2 0 -5 -33 -14 -130
-3 -33 -8 -91 -12 -130 -9 -96 -9 -423 1 -515 4 -41 8 -93 10 -115 2 -22 6
-53 8 -70 3 -16 9 -50 12 -75 4 -25 9 -54 11 -65 2 -10 6 -36 9 -56 3 -20 10
-51 15 -69 5 -19 8 -36 5 -38 -2 -3 1 -14 7 -25 6 -11 13 -37 15 -56 3 -20 9
-41 14 -47 5 -6 6 -14 2 -17 -3 -4 0 -13 7 -22 7 -8 10 -15 7 -15 -4 0 0 -18
8 -40 8 -22 12 -40 8 -40 -3 0 0 -6 6 -13 6 -8 12 -22 14 -33 2 -10 10 -32 16
-49 7 -16 14 -40 14 -52 1 -12 4 -19 6 -17 6 6 31 -68 26 -77 -3 -4 3 -10 12
-13 15 -6 15 -8 3 -16 -13 -8 -12 -10 2 -10 10 0 17 -3 16 -7 -3 -8 14 -55 40
-113 9 -19 17 -37 17 -40 1 -3 11 -24 23 -46 11 -23 18 -44 15 -48 -4 -3 -2
-6 4 -6 9 0 35 -44 37 -62 1 -4 7 -13 14 -19 6 -7 12 -18 12 -24 0 -6 11 -26
25 -45 13 -18 22 -37 19 -41 -3 -5 0 -9 5 -9 6 0 11 -7 11 -15 0 -8 5 -15 10
-15 6 0 10 -7 10 -15 0 -8 5 -15 10 -15 6 0 10 -6 10 -13 0 -7 10 -24 23 -37
12 -14 21 -26 20 -27 -8 -8 -2 -23 7 -18 9 5 15 -16 11 -38 -1 -5 3 -6 9 -2 9
6 14 -8 11 -28 -1 -5 3 -6 9 -2 5 3 13 -2 17 -12 4 -10 15 -25 25 -34 10 -9
18 -21 18 -28 0 -6 8 -19 18 -29 9 -10 26 -31 37 -46 11 -16 29 -39 40 -51 45
-52 53 -64 48 -69 -4 -3 -1 -6 6 -6 14 0 47 -30 34 -30 -4 0 0 -5 9 -11 10 -5
18 -17 18 -24 0 -8 8 -15 17 -15 9 0 14 -3 10 -6 -7 -7 58 -74 73 -74 5 0 9
-3 9 -7 -3 -18 2 -33 9 -30 10 3 68 -55 65 -65 -2 -4 1 -8 7 -8 5 0 39 -28 75
-63 36 -35 65 -59 65 -54 0 6 8 0 19 -11 10 -12 24 -22 31 -22 7 0 10 -7 6
-16 -3 -8 -2 -13 3 -10 4 3 16 -3 26 -14 10 -11 24 -20 32 -20 12 0 18 -13 13
-35 -1 -5 2 -7 6 -3 8 8 64 -22 64 -34 0 -4 7 -8 15 -8 8 0 15 -5 15 -11 0 -5
5 -7 10 -4 5 3 10 -1 10 -9 0 -9 9 -16 21 -16 11 0 17 -4 14 -10 -3 -5 3 -10
15 -10 12 0 18 -4 15 -10 -3 -5 1 -10 9 -10 9 0 16 -4 16 -10 0 -5 6 -10 13
-10 7 0 23 -9 35 -20 12 -11 23 -20 24 -19 8 3 58 -26 58 -33 0 -5 4 -7 9 -4
5 3 11 -1 15 -9 3 -8 12 -15 21 -15 8 0 15 -5 15 -11 0 -5 4 -8 9 -5 4 3 19
-3 32 -14 12 -12 33 -23 46 -26 13 -4 23 -9 23 -13 0 -4 16 -13 35 -20 19 -7
35 -17 35 -22 0 -5 3 -8 8 -7 13 4 82 -26 82 -35 0 -4 4 -6 9 -2 5 3 12 1 16
-5 4 -6 11 -8 16 -5 5 4 9 3 9 -2 0 -8 46 -32 73 -38 39 -8 76 -28 70 -38 -3
-5 -1 -7 5 -3 12 7 125 -32 130 -46 2 -4 8 -6 13 -2 5 3 35 -4 67 -16 31 -12
64 -23 72 -25 8 -2 47 -13 85 -24 39 -11 81 -22 95 -24 14 -3 36 -9 50 -15 14
-5 31 -7 39 -4 8 2 11 1 8 -4 -3 -5 7 -9 21 -10 15 0 43 -3 62 -7 19 -4 49 -9
65 -12 17 -3 46 -8 65 -11 19 -3 53 -8 75 -10 22 -2 54 -6 70 -9 164 -24 552
-25 735 0 54 7 121 16 160 21 31 4 158 26 215 38 11 2 32 9 46 14 15 6 29 9
31 6 3 -2 24 2 46 10 23 9 42 13 42 11 0 -2 19 2 41 11 23 8 51 16 63 18 12 2
35 10 51 17 39 16 55 20 82 22 12 0 20 4 17 8 -4 7 54 25 69 21 4 -1 7 3 7 9
0 6 7 9 15 5 8 -3 15 -2 15 2 0 8 121 57 133 54 4 -1 7 3 7 9 0 5 5 7 10 4 6
-3 10 -1 10 6 0 7 3 10 6 6 3 -3 25 5 49 19 24 13 50 24 58 24 8 0 20 7 27 15
7 9 19 14 27 11 8 -3 12 -2 9 3 -5 8 28 28 48 29 5 0 12 4 15 9 13 17 72 44
83 37 6 -4 8 -3 4 4 -3 6 3 13 14 17 11 3 20 11 20 16 0 5 9 9 19 9 10 0 22 7
25 16 3 8 10 12 16 9 6 -3 13 1 16 10 5 12 9 13 20 4 12 -10 13 -9 8 4 -4 12
2 18 20 23 15 3 26 13 26 23 0 12 2 13 9 3 6 -11 10 -10 15 4 3 9 9 14 12 11
3 -2 16 5 29 17 39 35 55 47 55 40 0 -4 11 5 24 19 13 14 27 23 30 20 3 -3 8
2 12 11 3 9 10 13 15 10 5 -3 9 0 9 5 0 6 4 11 10 11 5 0 25 16 44 35 20 19
40 35 46 35 6 0 8 5 4 12 -5 8 -2 9 10 5 10 -4 15 -3 11 3 -3 6 -2 10 4 10 5
0 39 29 74 64 36 36 68 62 71 59 3 -4 6 -1 6 5 0 13 112 127 122 124 4 -1 10
7 13 18 4 11 11 17 17 14 7 -5 9 -1 5 9 -3 10 -2 17 3 17 14 0 50 37 50 51 0
6 7 8 16 5 8 -3 12 -2 9 4 -3 5 3 17 13 27 11 10 25 28 31 41 7 12 17 20 23
16 6 -4 8 -3 5 3 -4 6 4 22 17 36 13 14 21 28 18 31 -3 3 2 6 11 6 9 0 16 3
16 8 -3 19 2 33 11 27 10 -6 15 9 10 30 -1 5 1 7 5 3 8 -8 35 14 29 24 -2 4 7
19 21 34 13 14 22 30 19 35 -5 8 9 13 28 10 4 0 5 6 2 14 -4 8 -2 15 4 15 5 0
13 11 16 25 4 14 11 25 16 25 6 0 10 7 10 15 0 8 5 15 11 15 5 0 8 4 5 9 -3 5
1 14 9 21 8 7 15 19 15 26 0 8 5 14 12 14 6 0 9 3 5 6 -3 4 1 13 9 21 8 8 12
19 9 24 -4 5 -1 9 4 9 6 0 25 29 42 65 17 36 35 65 40 65 5 0 8 3 7 7 -4 12
22 73 50 117 13 21 19 35 14 32 -13 -8 29 76 43 86 6 4 7 8 3 8 -4 0 3 25 17
55 13 30 22 55 19 55 -2 0 2 10 11 23 8 13 12 27 8 30 -3 4 -1 7 6 7 7 0 10 4
7 9 -3 5 2 26 11 47 9 22 17 50 19 64 2 14 8 26 14 28 5 2 8 8 5 12 -3 5 1 25
9 45 8 19 13 35 11 35 -3 0 0 12 6 28 6 15 12 34 13 42 6 45 31 138 35 135 3
-2 7 13 7 33 3 59 9 102 14 102 3 0 6 8 6 18 0 9 4 40 8 67 9 60 14 95 23 172
16 135 6 681 -14 767 -2 11 -6 38 -8 60 -2 21 -9 62 -15 90 -6 28 -12 65 -14
81 -2 17 -12 59 -21 95 -9 36 -19 76 -22 90 -10 48 -28 117 -50 180 -8 25 -16
53 -19 64 -2 10 -8 24 -14 32 -7 7 -9 18 -5 24 3 5 1 10 -6 10 -7 0 -10 3 -6
6 3 4 0 19 -9 35 -8 16 -11 29 -8 29 4 0 -1 10 -12 22 -10 12 -13 18 -6 14 7
-4 4 8 -7 27 -11 19 -17 38 -14 41 4 3 1 6 -6 6 -7 0 -10 4 -6 9 3 5 0 13 -6
16 -5 4 -8 14 -5 22 3 8 1 11 -4 8 -6 -3 -10 2 -10 12 0 10 -7 29 -16 41 -8
12 -17 32 -19 44 -3 12 -9 25 -15 28 -6 4 -12 16 -13 28 0 12 -7 24 -15 27 -7
3 -10 9 -7 15 3 5 3 10 -2 10 -8 0 -33 47 -33 62 0 5 -9 18 -20 30 -11 12 -20
29 -20 39 0 9 -7 20 -16 23 -8 3 -12 10 -9 16 3 5 1 10 -5 10 -6 0 -8 5 -5 10
3 6 2 10 -4 10 -6 0 -13 11 -17 25 -3 14 -10 22 -15 19 -5 -3 -9 1 -9 9 0 8
-7 20 -15 27 -9 7 -14 19 -11 27 3 8 1 11 -4 8 -6 -3 -10 1 -10 9 0 9 -4 16
-10 16 -5 0 -10 7 -10 15 0 7 -8 19 -17 24 -10 6 -14 11 -9 11 5 0 -1 9 -14
20 -13 11 -19 20 -14 20 5 0 1 5 -8 11 -10 5 -18 14 -18 19 0 6 -7 18 -16 28
-30 34 -74 95 -74 103 0 5 -7 9 -16 9 -8 0 -12 5 -9 10 3 6 1 10 -5 10 -6 0
-8 5 -5 10 3 6 -1 10 -9 10 -9 0 -16 5 -16 10 0 6 -11 20 -25 32 -14 12 -25
27 -25 34 0 7 -3 14 -7 16 -5 2 -20 18 -35 36 -16 19 -28 30 -28 26 0 -5 -8 3
-17 16 -10 14 -17 29 -15 33 1 5 -2 6 -7 3 -10 -7 -51 31 -51 46 0 5 -4 6 -10
3 -5 -3 -10 1 -10 10 0 9 -4 13 -10 10 -5 -3 -10 1 -10 9 0 9 -7 16 -15 16 -9
0 -20 10 -25 23 -5 12 -9 19 -9 15 -1 -4 -20 12 -43 34 -24 23 -45 42 -48 43
-3 0 -4 4 -2 8 1 5 -2 6 -6 3 -5 -3 -21 5 -35 18 -14 13 -28 21 -31 18 -6 -5
-10 13 -7 30 0 4 -6 5 -14 2 -8 -4 -17 1 -21 10 -3 9 -11 16 -18 16 -6 0 -18
9 -26 20 -8 11 -18 20 -23 20 -14 0 -37 27 -29 34 3 4 -1 4 -11 0 -11 -4 -17
-1 -17 7 0 7 -3 10 -6 6 -5 -5 -33 16 -70 51 -8 7 -14 11 -14 8 0 -3 -24 11
-52 30 -29 19 -56 34 -61 34 -4 0 -5 5 -1 12 4 6 3 8 -4 4 -6 -3 -17 1 -26 9
-8 9 -17 15 -18 14 -8 -5 -48 13 -48 22 0 5 -7 9 -16 9 -8 0 -12 5 -9 10 3 6
-3 10 -14 10 -11 0 -27 7 -35 16 -9 8 -20 12 -26 9 -5 -3 -10 -1 -10 4 0 6 -7
11 -15 11 -8 0 -15 5 -15 11 0 5 -5 7 -10 4 -6 -3 -12 0 -15 7 -3 8 -14 14
-25 15 -11 1 -27 9 -36 17 -9 9 -20 14 -25 11 -5 -4 -9 -1 -9 4 0 6 -3 10 -7
9 -9 -1 -76 26 -114 47 -14 8 -29 12 -33 8 -3 -3 -6 -2 -6 4 0 5 -6 10 -12 10
-7 0 -29 7 -48 15 -41 19 -113 42 -119 39 -2 -2 -7 2 -10 7 -4 6 -18 13 -31
15 -14 2 -32 7 -40 10 -26 10 -144 46 -170 51 -14 3 -45 11 -70 17 -25 6 -52
12 -60 14 -8 1 -33 7 -55 13 -22 6 -58 13 -80 16 -22 4 -51 8 -65 11 -14 2
-43 7 -65 10 -22 3 -53 7 -70 10 -131 20 -345 27 -345 12 0 -9 -2 -9 -8 -1 -5
8 -58 11 -160 10 -84 0 -154 -1 -155 -2z"/>
</g>
</svg>
